<?xml version="1.0" encoding="utf-8"?>
<!-- Generator: Adobe Illustrator 26.3.0, SVG Export Plug-In . SVG Version: 6.00 Build 0)  -->
<svg version="1.1" id="Capa_1" xmlns="http://www.w3.org/2000/svg" xmlns:xlink="http://www.w3.org/1999/xlink" x="0px" y="0px"
	 viewBox="0 0 1200 2699.4" style="enable-background:new 0 0 1200 2699.4;" xml:space="preserve">
<style type="text/css">
	.st0{fill:#1E1E1E;}
	.st1{clip-path:url(#SVGID_00000025426244172381607190000010602531479863525810_);}
	.st2{fill:none;stroke:#273469;stroke-miterlimit:10;}
	.st3{clip-path:url(#SVGID_00000124869420022141852310000007790130952929310092_);}
	.st4{fill:url(#SVGID_00000032630553037258033420000011563028781856832447_);}
	.st5{clip-path:url(#SVGID_00000174590640406195680440000003366779454043212443_);}
	.st6{clip-path:url(#SVGID_00000057133147601967007630000012053095350525594546_);}
	.st7{fill:url(#SVGID_00000143588758875919224360000007099466137004344208_);}
</style>
<g id="Background">
	<rect y="0" class="st0" width="1200" height="675"/>
	<rect y="675" class="st0" width="1200" height="675"/>
	<rect y="2025" class="st0" width="1200" height="675"/>
	<rect y="1350" class="st0" width="1200" height="675"/>
</g>
<g id="Object">
	<g>
		<g>
			<defs>
				<rect id="SVGID_1_" y="0" width="1200" height="675"/>
			</defs>
			<clipPath id="SVGID_00000036223680172279484290000010701955013552987014_">
				<use xlink:href="#SVGID_1_"  style="overflow:visible;"/>
			</clipPath>
			<g style="clip-path:url(#SVGID_00000036223680172279484290000010701955013552987014_);">
				<polygon class="st2" points="438.6,337.8 535.9,337.8 584.5,253.3 535.9,168.9 438.6,168.9 389.9,253.3 				"/>
				<polygon class="st2" points="146.7,168.9 244,168.9 292.7,84.4 244,0 146.7,0 98.1,84.4 				"/>
				<polygon class="st2" points="244,168.9 341.3,168.9 389.9,84.4 341.3,0 244,0 195.4,84.4 				"/>
				<polygon class="st2" points="-47.8,168.9 49.4,168.9 98.1,84.4 49.4,0 -47.8,0 -96.5,84.4 				"/>
				<polygon class="st2" points="49.4,337.8 146.7,337.8 195.4,253.3 146.7,168.9 49.4,168.9 0.8,253.3 				"/>
				<polygon class="st2" points="146.7,337.8 244,337.8 292.7,253.3 244,168.9 146.7,168.9 98.1,253.3 				"/>
				<polygon class="st2" points="244,337.8 341.3,337.8 389.9,253.3 341.3,168.9 244,168.9 195.4,253.3 				"/>
				<polygon class="st2" points="-47.8,337.8 49.4,337.8 98.1,253.3 49.4,168.9 -47.8,168.9 -96.5,253.3 				"/>
				<polygon class="st2" points="341.3,337.8 438.6,337.8 487.2,253.3 438.6,168.9 341.3,168.9 292.7,253.3 				"/>
				<polygon class="st2" points="49.4,168.9 146.7,168.9 195.4,84.4 146.7,0 49.4,0 0.8,84.4 				"/>
				<polygon class="st2" points="341.3,168.9 438.6,168.9 487.2,84.4 438.6,0 341.3,0 292.7,84.4 				"/>
				<polygon class="st2" points="438.6,168.9 535.9,168.9 584.5,84.4 535.9,0 438.6,0 389.9,84.4 				"/>
				<polygon class="st2" points="535.9,337.8 633.2,337.8 681.8,253.3 633.2,168.9 535.9,168.9 487.2,253.3 				"/>
				<polygon class="st2" points="535.9,168.9 633.1,168.9 681.8,84.4 633.1,0 535.9,0 487.2,84.4 				"/>
				<polygon class="st2" points="-47.8,675.6 49.4,675.6 98.1,591.1 49.4,506.7 -47.8,506.7 -96.5,591.1 				"/>
				<polygon class="st2" points="-47.8,506.7 49.4,506.7 98.1,422.2 49.4,337.8 -47.8,337.8 -96.5,422.2 				"/>
				<polygon class="st2" points="49.4,506.7 146.7,506.7 195.4,422.2 146.7,337.8 49.4,337.8 0.8,422.2 				"/>
				<polygon class="st2" points="146.7,506.7 244,506.7 292.7,422.2 244,337.8 146.7,337.8 98.1,422.2 				"/>
				<polygon class="st2" points="146.7,844.5 244,844.5 292.7,760 244,675.6 146.7,675.6 98.1,760 				"/>
				<polygon class="st2" points="244,844.5 341.3,844.5 389.9,760 341.3,675.6 244,675.6 195.4,760 				"/>
				<polygon class="st2" points="49.4,675.6 146.7,675.6 195.4,591.1 146.7,506.7 49.4,506.7 0.8,591.1 				"/>
				<polygon class="st2" points="341.3,506.7 438.6,506.7 487.2,422.2 438.6,337.8 341.3,337.8 292.7,422.2 				"/>
				<polygon class="st2" points="-47.8,844.5 49.4,844.5 98.1,760 49.4,675.6 -47.8,675.6 -96.5,760 				"/>
				<polygon class="st2" points="244,506.7 341.3,506.7 389.9,422.2 341.3,337.8 244,337.8 195.4,422.2 				"/>
				<polygon class="st2" points="146.7,675.6 244,675.6 292.7,591.1 244,506.7 146.7,506.7 98.1,591.1 				"/>
				<polygon class="st2" points="244,675.6 341.3,675.6 389.9,591.1 341.3,506.7 244,506.7 195.4,591.1 				"/>
				<polygon class="st2" points="341.3,675.6 438.6,675.6 487.2,591.1 438.6,506.7 341.3,506.7 292.7,591.1 				"/>
				<polygon class="st2" points="49.4,844.5 146.7,844.5 195.4,760 146.7,675.6 49.4,675.6 0.8,760 				"/>
				<polygon class="st2" points="341.3,844.5 438.6,844.5 487.2,760 438.6,675.6 341.3,675.6 292.7,760 				"/>
				<polygon class="st2" points="1216.4,168.9 1313.7,168.9 1362.3,84.4 1313.7,0 1216.4,0 1167.7,84.4 				"/>
				<polygon class="st2" points="1119.1,337.8 1216.4,337.8 1265,253.3 1216.4,168.9 1119.1,168.9 1070.4,253.3 				"/>
				<polygon class="st2" points="1216.4,337.8 1313.7,337.8 1362.3,253.3 1313.7,168.9 1216.4,168.9 1167.7,253.3 				"/>
				<polygon class="st2" points="1119.1,168.9 1216.4,168.9 1265,84.4 1216.4,0 1119.1,0 1070.4,84.4 				"/>
				<polygon class="st2" points="1119.1,506.7 1216.4,506.7 1265,422.2 1216.4,337.8 1119.1,337.8 1070.4,422.2 				"/>
				<polygon class="st2" points="1216.4,506.7 1313.7,506.7 1362.3,422.2 1313.7,337.8 1216.4,337.8 1167.7,422.2 				"/>
				<polygon class="st2" points="1216.4,844.5 1313.7,844.5 1362.3,760 1313.7,675.6 1216.4,675.6 1167.7,760 				"/>
				<polygon class="st2" points="1119.1,675.6 1216.4,675.6 1265,591.1 1216.4,506.7 1119.1,506.7 1070.4,591.1 				"/>
				<polygon class="st2" points="1216.4,675.6 1313.7,675.6 1362.3,591.1 1313.7,506.7 1216.4,506.7 1167.7,591.1 				"/>
				<polygon class="st2" points="1119.1,844.5 1216.4,844.5 1265,760 1216.4,675.6 1119.1,675.6 1070.4,760 				"/>
				<polygon class="st2" points="438.6,844.5 535.9,844.5 584.5,760 535.9,675.6 438.6,675.6 389.9,760 				"/>
				<polygon class="st2" points="438.6,675.6 535.9,675.6 584.5,591.1 535.9,506.7 438.6,506.7 389.9,591.1 				"/>
				<polygon class="st2" points="438.6,506.7 535.9,506.7 584.5,422.2 535.9,337.8 438.6,337.8 389.9,422.2 				"/>
				<polygon class="st2" points="535.9,675.6 633.2,675.6 681.8,591.1 633.2,506.7 535.9,506.7 487.2,591.1 				"/>
				<polygon class="st2" points="535.9,844.5 633.2,844.5 681.8,760 633.2,675.6 535.9,675.6 487.2,760 				"/>
				<polygon class="st2" points="535.9,506.7 633.2,506.7 681.8,422.2 633.2,337.8 535.9,337.8 487.2,422.2 				"/>
				<polygon class="st2" points="924.5,337.8 1021.8,337.8 1070.4,253.3 1021.8,168.9 924.5,168.9 875.9,253.3 				"/>
				<polygon class="st2" points="632.7,168.9 729.9,168.9 778.6,84.4 729.9,0 632.7,0 584,84.4 				"/>
				<polygon class="st2" points="729.9,168.9 827.2,168.9 875.9,84.4 827.2,0 729.9,0 681.3,84.4 				"/>
				<polygon class="st2" points="632.7,337.8 729.9,337.8 778.6,253.3 729.9,168.9 632.7,168.9 584,253.3 				"/>
				<polygon class="st2" points="729.9,337.8 827.2,337.8 875.9,253.3 827.2,168.9 729.9,168.9 681.3,253.3 				"/>
				<polygon class="st2" points="827.2,337.8 924.5,337.8 973.2,253.3 924.5,168.9 827.2,168.9 778.6,253.3 				"/>
				<polygon class="st2" points="827.2,168.9 924.5,168.9 973.2,84.4 924.5,0 827.2,0 778.6,84.4 				"/>
				<polygon class="st2" points="924.5,168.9 1021.8,168.9 1070.4,84.4 1021.8,0 924.5,0 875.9,84.4 				"/>
				<polygon class="st2" points="1021.8,337.8 1119.1,337.8 1167.7,253.3 1119.1,168.9 1021.8,168.9 973.2,253.3 				"/>
				<polygon class="st2" points="1021.8,168.9 1119.1,168.9 1167.7,84.4 1119.1,0 1021.8,0 973.1,84.4 				"/>
				<polygon class="st2" points="632.7,506.7 729.9,506.7 778.6,422.2 729.9,337.8 632.7,337.8 584,422.2 				"/>
				<polygon class="st2" points="632.7,844.5 729.9,844.5 778.6,760 729.9,675.6 632.7,675.6 584,760 				"/>
				<polygon class="st2" points="729.9,844.5 827.2,844.5 875.9,760 827.2,675.6 729.9,675.6 681.3,760 				"/>
				<polygon class="st2" points="827.2,506.7 924.5,506.7 973.2,422.2 924.5,337.8 827.2,337.8 778.6,422.2 				"/>
				<polygon class="st2" points="729.9,506.7 827.2,506.7 875.9,422.2 827.2,337.8 729.9,337.8 681.3,422.2 				"/>
				<polygon class="st2" points="632.7,675.6 729.9,675.6 778.6,591.1 729.9,506.7 632.7,506.7 584,591.1 				"/>
				<polygon class="st2" points="729.9,675.6 827.2,675.6 875.9,591.1 827.2,506.7 729.9,506.7 681.3,591.1 				"/>
				<polygon class="st2" points="827.2,675.6 924.5,675.6 973.2,591.1 924.5,506.7 827.2,506.7 778.6,591.1 				"/>
				<polygon class="st2" points="827.2,844.5 924.5,844.5 973.2,760 924.5,675.6 827.2,675.6 778.6,760 				"/>
				<polygon class="st2" points="924.5,844.5 1021.8,844.5 1070.4,760 1021.8,675.6 924.5,675.6 875.9,760 				"/>
				<polygon class="st2" points="924.5,675.6 1021.8,675.6 1070.4,591.1 1021.8,506.7 924.5,506.7 875.9,591.1 				"/>
				<polygon class="st2" points="924.5,506.7 1021.8,506.7 1070.4,422.2 1021.8,337.8 924.5,337.8 875.9,422.2 				"/>
				<polygon class="st2" points="1021.8,675.6 1119.1,675.6 1167.7,591.1 1119.1,506.7 1021.8,506.7 973.2,591.1 				"/>
				<polygon class="st2" points="1021.8,844.5 1119.1,844.5 1167.7,760 1119.1,675.6 1021.8,675.6 973.2,760 				"/>
				<polygon class="st2" points="1021.8,506.7 1119.1,506.7 1167.7,422.2 1119.1,337.8 1021.8,337.8 973.2,422.2 				"/>
			</g>
		</g>
	</g>
	<g>
		<g>
			<defs>
				<rect id="SVGID_00000055671290394458975240000003082840167481417919_" y="675" width="1200" height="675"/>
			</defs>
			<clipPath id="SVGID_00000170266971375162492410000005694930244770181769_">
				<use xlink:href="#SVGID_00000055671290394458975240000003082840167481417919_"  style="overflow:visible;"/>
			</clipPath>
			<g style="clip-path:url(#SVGID_00000170266971375162492410000005694930244770181769_);">
				<polygon class="st2" points="438.6,1012.2 535.9,1012.2 584.5,1096.7 535.9,1181.1 438.6,1181.1 389.9,1096.7 				"/>
				<polygon class="st2" points="146.7,1181.1 244,1181.1 292.7,1265.6 244,1350 146.7,1350 98.1,1265.6 				"/>
				<polygon class="st2" points="244,1181.1 341.3,1181.1 389.9,1265.6 341.3,1350 244,1350 195.4,1265.6 				"/>
				<polygon class="st2" points="-47.8,1181.1 49.4,1181.1 98.1,1265.6 49.4,1350 -47.8,1350 -96.5,1265.6 				"/>
				<polygon class="st2" points="49.4,1012.2 146.7,1012.2 195.4,1096.7 146.7,1181.1 49.4,1181.1 0.8,1096.7 				"/>
				<polygon class="st2" points="146.7,1012.2 244,1012.2 292.7,1096.7 244,1181.1 146.7,1181.1 98.1,1096.7 				"/>
				<polygon class="st2" points="244,1012.2 341.3,1012.2 389.9,1096.7 341.3,1181.1 244,1181.1 195.4,1096.7 				"/>
				<polygon class="st2" points="-47.8,1012.2 49.4,1012.2 98.1,1096.7 49.4,1181.1 -47.8,1181.1 -96.5,1096.7 				"/>
				<polygon class="st2" points="341.3,1012.2 438.6,1012.2 487.2,1096.7 438.6,1181.1 341.3,1181.1 292.7,1096.7 				"/>
				<polygon class="st2" points="49.4,1181.1 146.7,1181.1 195.4,1265.6 146.7,1350 49.4,1350 0.8,1265.6 				"/>
				<polygon class="st2" points="341.3,1181.1 438.6,1181.1 487.2,1265.6 438.6,1350 341.3,1350 292.7,1265.6 				"/>
				<polygon class="st2" points="438.6,1181.1 535.9,1181.1 584.5,1265.6 535.9,1350 438.6,1350 389.9,1265.6 				"/>
				<polygon class="st2" points="535.9,1012.2 633.2,1012.2 681.8,1096.7 633.2,1181.1 535.9,1181.1 487.2,1096.7 				"/>
				<polygon class="st2" points="535.9,1181.1 633.1,1181.1 681.8,1265.6 633.1,1350 535.9,1350 487.2,1265.6 				"/>
				<polygon class="st2" points="-47.8,674.4 49.4,674.4 98.1,758.9 49.4,843.3 -47.8,843.3 -96.5,758.9 				"/>
				<polygon class="st2" points="-47.8,843.3 49.4,843.3 98.1,927.8 49.4,1012.2 -47.8,1012.2 -96.5,927.8 				"/>
				<polygon class="st2" points="49.4,843.3 146.7,843.3 195.4,927.8 146.7,1012.2 49.4,1012.2 0.8,927.8 				"/>
				<polygon class="st2" points="146.7,843.3 244,843.3 292.7,927.8 244,1012.2 146.7,1012.2 98.1,927.8 				"/>
				<polygon class="st2" points="146.7,505.5 244,505.5 292.7,590 244,674.4 146.7,674.4 98.1,590 				"/>
				<polygon class="st2" points="244,505.5 341.3,505.5 389.9,590 341.3,674.4 244,674.4 195.4,590 				"/>
				<polygon class="st2" points="49.4,674.4 146.7,674.4 195.4,758.9 146.7,843.3 49.4,843.3 0.8,758.9 				"/>
				<polygon class="st2" points="341.3,843.3 438.6,843.3 487.2,927.8 438.6,1012.2 341.3,1012.2 292.7,927.8 				"/>
				<polygon class="st2" points="-47.8,505.5 49.4,505.5 98.1,590 49.4,674.4 -47.8,674.4 -96.5,590 				"/>
				<polygon class="st2" points="244,843.3 341.3,843.3 389.9,927.8 341.3,1012.2 244,1012.2 195.4,927.8 				"/>
				<polygon class="st2" points="146.7,674.4 244,674.4 292.7,758.9 244,843.3 146.7,843.3 98.1,758.9 				"/>
				<polygon class="st2" points="244,674.4 341.3,674.4 389.9,758.9 341.3,843.3 244,843.3 195.4,758.9 				"/>
				<polygon class="st2" points="341.3,674.4 438.6,674.4 487.2,758.9 438.6,843.3 341.3,843.3 292.7,758.9 				"/>
				<polygon class="st2" points="49.4,505.5 146.7,505.5 195.4,590 146.7,674.4 49.4,674.4 0.8,590 				"/>
				<polygon class="st2" points="341.3,505.5 438.6,505.5 487.2,590 438.6,674.4 341.3,674.4 292.7,590 				"/>
				<polygon class="st2" points="1216.4,1181.1 1313.7,1181.1 1362.3,1265.6 1313.7,1350 1216.4,1350 1167.7,1265.6 				"/>
				<polygon class="st2" points="1119.1,1012.2 1216.4,1012.2 1265,1096.7 1216.4,1181.1 1119.1,1181.1 1070.4,1096.7 				"/>
				<polygon class="st2" points="1216.4,1012.2 1313.7,1012.2 1362.3,1096.7 1313.7,1181.1 1216.4,1181.1 1167.7,1096.7 				"/>
				<polygon class="st2" points="1119.1,1181.1 1216.4,1181.1 1265,1265.6 1216.4,1350 1119.1,1350 1070.4,1265.6 				"/>
				<polygon class="st2" points="1119.1,843.3 1216.4,843.3 1265,927.8 1216.4,1012.2 1119.1,1012.2 1070.4,927.8 				"/>
				<polygon class="st2" points="1216.4,843.3 1313.7,843.3 1362.3,927.8 1313.7,1012.2 1216.4,1012.2 1167.7,927.8 				"/>
				<polygon class="st2" points="1216.4,505.5 1313.7,505.5 1362.3,590 1313.7,674.4 1216.4,674.4 1167.7,590 				"/>
				<polygon class="st2" points="1119.1,674.4 1216.4,674.4 1265,758.9 1216.4,843.3 1119.1,843.3 1070.4,758.9 				"/>
				<polygon class="st2" points="1216.4,674.4 1313.7,674.4 1362.3,758.9 1313.7,843.3 1216.4,843.3 1167.7,758.9 				"/>
				<polygon class="st2" points="1119.1,505.5 1216.4,505.5 1265,590 1216.4,674.4 1119.1,674.4 1070.4,590 				"/>
				<polygon class="st2" points="438.6,505.5 535.9,505.5 584.5,590 535.9,674.4 438.6,674.4 389.9,590 				"/>
				<polygon class="st2" points="438.6,674.4 535.9,674.4 584.5,758.9 535.9,843.3 438.6,843.3 389.9,758.9 				"/>
				<polygon class="st2" points="438.6,843.3 535.9,843.3 584.5,927.8 535.9,1012.2 438.6,1012.2 389.9,927.8 				"/>
				<polygon class="st2" points="535.9,674.4 633.2,674.4 681.8,758.9 633.2,843.3 535.9,843.3 487.2,758.9 				"/>
				<polygon class="st2" points="535.9,505.5 633.2,505.5 681.8,590 633.2,674.4 535.9,674.4 487.2,590 				"/>
				<polygon class="st2" points="535.9,843.3 633.2,843.3 681.8,927.8 633.2,1012.2 535.9,1012.2 487.2,927.8 				"/>
				<polygon class="st2" points="924.5,1012.2 1021.8,1012.2 1070.4,1096.7 1021.8,1181.1 924.5,1181.1 875.9,1096.7 				"/>
				<polygon class="st2" points="632.7,1181.1 729.9,1181.1 778.6,1265.6 729.9,1350 632.7,1350 584,1265.6 				"/>
				<polygon class="st2" points="729.9,1181.1 827.2,1181.1 875.9,1265.6 827.2,1350 729.9,1350 681.3,1265.6 				"/>
				<polygon class="st2" points="632.7,1012.2 729.9,1012.2 778.6,1096.7 729.9,1181.1 632.7,1181.1 584,1096.7 				"/>
				<polygon class="st2" points="729.9,1012.2 827.2,1012.2 875.9,1096.7 827.2,1181.1 729.9,1181.1 681.3,1096.7 				"/>
				<polygon class="st2" points="827.2,1012.2 924.5,1012.2 973.2,1096.7 924.5,1181.1 827.2,1181.1 778.6,1096.7 				"/>
				<polygon class="st2" points="827.2,1181.1 924.5,1181.1 973.2,1265.6 924.5,1350 827.2,1350 778.6,1265.6 				"/>
				<polygon class="st2" points="924.5,1181.1 1021.8,1181.1 1070.4,1265.6 1021.8,1350 924.5,1350 875.9,1265.6 				"/>
				<polygon class="st2" points="1021.8,1012.2 1119.1,1012.2 1167.7,1096.7 1119.1,1181.1 1021.8,1181.1 973.2,1096.7 				"/>
				<polygon class="st2" points="1021.8,1181.1 1119.1,1181.1 1167.7,1265.6 1119.1,1350 1021.8,1350 973.1,1265.6 				"/>
				<polygon class="st2" points="632.7,843.3 729.9,843.3 778.6,927.8 729.9,1012.2 632.7,1012.2 584,927.8 				"/>
				<polygon class="st2" points="632.7,505.5 729.9,505.5 778.6,590 729.9,674.4 632.7,674.4 584,590 				"/>
				<polygon class="st2" points="729.9,505.5 827.2,505.5 875.9,590 827.2,674.4 729.9,674.4 681.3,590 				"/>
				<polygon class="st2" points="827.2,843.3 924.5,843.3 973.2,927.8 924.5,1012.2 827.2,1012.2 778.6,927.8 				"/>
				<polygon class="st2" points="729.9,843.3 827.2,843.3 875.9,927.8 827.2,1012.2 729.9,1012.2 681.3,927.8 				"/>
				<polygon class="st2" points="632.7,674.4 729.9,674.4 778.6,758.9 729.9,843.3 632.7,843.3 584,758.9 				"/>
				<polygon class="st2" points="729.9,674.4 827.2,674.4 875.9,758.9 827.2,843.3 729.9,843.3 681.3,758.9 				"/>
				<polygon class="st2" points="827.2,674.4 924.5,674.4 973.2,758.9 924.5,843.3 827.2,843.3 778.6,758.9 				"/>
				<polygon class="st2" points="827.2,505.5 924.5,505.5 973.2,590 924.5,674.4 827.2,674.4 778.6,590 				"/>
				<polygon class="st2" points="924.5,505.5 1021.8,505.5 1070.4,590 1021.8,674.4 924.5,674.4 875.9,590 				"/>
				<polygon class="st2" points="924.5,674.4 1021.8,674.4 1070.4,758.9 1021.8,843.3 924.5,843.3 875.9,758.9 				"/>
				<polygon class="st2" points="924.5,843.3 1021.8,843.3 1070.4,927.8 1021.8,1012.2 924.5,1012.2 875.9,927.8 				"/>
				<polygon class="st2" points="1021.8,674.4 1119.1,674.4 1167.7,758.9 1119.1,843.3 1021.8,843.3 973.2,758.9 				"/>
				<polygon class="st2" points="1021.8,505.5 1119.1,505.5 1167.7,590 1119.1,674.4 1021.8,674.4 973.2,590 				"/>
				<polygon class="st2" points="1021.8,843.3 1119.1,843.3 1167.7,927.8 1119.1,1012.2 1021.8,1012.2 973.2,927.8 				"/>
			</g>
		</g>
	</g>
	
		<linearGradient id="SVGID_00000157305220732088280700000013902077292183330978_" gradientUnits="userSpaceOnUse" x1="-154.218" y1="2445.6025" x2="1337.834" y2="1609.3599" gradientTransform="matrix(1 0 0 -1 0 2697.8899)">
		<stop  offset="0" style="stop-color:#0D0D0D;stop-opacity:0"/>
		<stop  offset="8.532909e-02" style="stop-color:#0F0F0F;stop-opacity:0.1718"/>
		<stop  offset="0.4966" style="stop-color:#121212"/>
		<stop  offset="0.9575" style="stop-color:#121212;stop-opacity:8.435023e-02"/>
		<stop  offset="1" style="stop-color:#121212;stop-opacity:0"/>
	</linearGradient>
	<rect y="0" style="fill:url(#SVGID_00000157305220732088280700000013902077292183330978_);" width="1200" height="1350"/>
	<g>
		<g>
			<defs>
				<rect id="SVGID_00000101790892718860739660000009533685989028598949_" y="2025" width="1200" height="675"/>
			</defs>
			<clipPath id="SVGID_00000047042223152589489080000008913520678763060891_">
				<use xlink:href="#SVGID_00000101790892718860739660000009533685989028598949_"  style="overflow:visible;"/>
			</clipPath>
			<g style="clip-path:url(#SVGID_00000047042223152589489080000008913520678763060891_);">
				<polygon class="st2" points="438.6,2362.2 535.9,2362.2 584.5,2446.7 535.9,2531.1 438.6,2531.1 389.9,2446.7 				"/>
				<polygon class="st2" points="146.7,2531.1 244,2531.1 292.7,2615.6 244,2700 146.7,2700 98.1,2615.6 				"/>
				<polygon class="st2" points="244,2531.1 341.3,2531.1 389.9,2615.6 341.3,2700 244,2700 195.4,2615.6 				"/>
				<polygon class="st2" points="-47.8,2531.1 49.4,2531.1 98.1,2615.6 49.4,2700 -47.8,2700 -96.5,2615.6 				"/>
				<polygon class="st2" points="49.4,2362.2 146.7,2362.2 195.4,2446.7 146.7,2531.1 49.4,2531.1 0.8,2446.7 				"/>
				<polygon class="st2" points="146.7,2362.2 244,2362.2 292.7,2446.7 244,2531.1 146.7,2531.1 98.1,2446.7 				"/>
				<polygon class="st2" points="244,2362.2 341.3,2362.2 389.9,2446.7 341.3,2531.1 244,2531.1 195.4,2446.7 				"/>
				<polygon class="st2" points="-47.8,2362.2 49.4,2362.2 98.1,2446.7 49.4,2531.1 -47.8,2531.1 -96.5,2446.7 				"/>
				<polygon class="st2" points="341.3,2362.2 438.6,2362.2 487.2,2446.7 438.6,2531.1 341.3,2531.1 292.7,2446.7 				"/>
				<polygon class="st2" points="49.4,2531.1 146.7,2531.1 195.4,2615.6 146.7,2700 49.4,2700 0.8,2615.6 				"/>
				<polygon class="st2" points="341.3,2531.1 438.6,2531.1 487.2,2615.6 438.6,2700 341.3,2700 292.7,2615.6 				"/>
				<polygon class="st2" points="438.6,2531.1 535.9,2531.1 584.5,2615.6 535.9,2700 438.6,2700 389.9,2615.6 				"/>
				<polygon class="st2" points="535.9,2362.2 633.2,2362.2 681.8,2446.7 633.2,2531.1 535.9,2531.1 487.2,2446.7 				"/>
				<polygon class="st2" points="535.9,2531.1 633.1,2531.1 681.8,2615.6 633.1,2700 535.9,2700 487.2,2615.6 				"/>
				<polygon class="st2" points="-47.8,2024.4 49.4,2024.4 98.1,2108.9 49.4,2193.3 -47.8,2193.3 -96.5,2108.9 				"/>
				<polygon class="st2" points="-47.8,2193.3 49.4,2193.3 98.1,2277.8 49.4,2362.2 -47.8,2362.2 -96.5,2277.8 				"/>
				<polygon class="st2" points="49.4,2193.3 146.7,2193.3 195.4,2277.8 146.7,2362.2 49.4,2362.2 0.8,2277.8 				"/>
				<polygon class="st2" points="146.7,2193.3 244,2193.3 292.7,2277.8 244,2362.2 146.7,2362.2 98.1,2277.8 				"/>
				<polygon class="st2" points="146.7,1855.5 244,1855.5 292.7,1940 244,2024.4 146.7,2024.4 98.1,1940 				"/>
				<polygon class="st2" points="244,1855.5 341.3,1855.5 389.9,1940 341.3,2024.4 244,2024.4 195.4,1940 				"/>
				<polygon class="st2" points="49.4,2024.4 146.7,2024.4 195.4,2108.9 146.7,2193.3 49.4,2193.3 0.8,2108.9 				"/>
				<polygon class="st2" points="341.3,2193.3 438.6,2193.3 487.2,2277.8 438.6,2362.2 341.3,2362.2 292.7,2277.8 				"/>
				<polygon class="st2" points="-47.8,1855.5 49.4,1855.5 98.1,1940 49.4,2024.4 -47.8,2024.4 -96.5,1940 				"/>
				<polygon class="st2" points="244,2193.3 341.3,2193.3 389.9,2277.8 341.3,2362.2 244,2362.2 195.4,2277.8 				"/>
				<polygon class="st2" points="146.7,2024.4 244,2024.4 292.7,2108.9 244,2193.3 146.7,2193.3 98.1,2108.9 				"/>
				<polygon class="st2" points="244,2024.4 341.3,2024.4 389.9,2108.9 341.3,2193.3 244,2193.3 195.4,2108.9 				"/>
				<polygon class="st2" points="341.3,2024.4 438.6,2024.4 487.2,2108.9 438.6,2193.3 341.3,2193.3 292.7,2108.9 				"/>
				<polygon class="st2" points="49.4,1855.5 146.7,1855.5 195.4,1940 146.7,2024.4 49.4,2024.4 0.8,1940 				"/>
				<polygon class="st2" points="341.3,1855.5 438.6,1855.5 487.2,1940 438.6,2024.4 341.3,2024.4 292.7,1940 				"/>
				<polygon class="st2" points="1216.4,2531.1 1313.7,2531.1 1362.3,2615.6 1313.7,2700 1216.4,2700 1167.7,2615.6 				"/>
				<polygon class="st2" points="1119.1,2362.2 1216.4,2362.2 1265,2446.7 1216.4,2531.1 1119.1,2531.1 1070.4,2446.7 				"/>
				<polygon class="st2" points="1216.4,2362.2 1313.7,2362.2 1362.3,2446.7 1313.7,2531.1 1216.4,2531.1 1167.7,2446.7 				"/>
				<polygon class="st2" points="1119.1,2531.1 1216.4,2531.1 1265,2615.6 1216.4,2700 1119.1,2700 1070.4,2615.6 				"/>
				<polygon class="st2" points="1119.1,2193.3 1216.4,2193.3 1265,2277.8 1216.4,2362.2 1119.1,2362.2 1070.4,2277.8 				"/>
				<polygon class="st2" points="1216.4,2193.3 1313.7,2193.3 1362.3,2277.8 1313.7,2362.2 1216.4,2362.2 1167.7,2277.8 				"/>
				<polygon class="st2" points="1216.4,1855.5 1313.7,1855.5 1362.3,1940 1313.7,2024.4 1216.4,2024.4 1167.7,1940 				"/>
				<polygon class="st2" points="1119.1,2024.4 1216.4,2024.4 1265,2108.9 1216.4,2193.3 1119.1,2193.3 1070.4,2108.9 				"/>
				<polygon class="st2" points="1216.4,2024.4 1313.7,2024.4 1362.3,2108.9 1313.7,2193.3 1216.4,2193.3 1167.7,2108.9 				"/>
				<polygon class="st2" points="1119.1,1855.5 1216.4,1855.5 1265,1940 1216.4,2024.4 1119.1,2024.4 1070.4,1940 				"/>
				<polygon class="st2" points="438.6,1855.5 535.9,1855.5 584.5,1940 535.9,2024.4 438.6,2024.4 389.9,1940 				"/>
				<polygon class="st2" points="438.6,2024.4 535.9,2024.4 584.5,2108.9 535.9,2193.3 438.6,2193.3 389.9,2108.9 				"/>
				<polygon class="st2" points="438.6,2193.3 535.9,2193.3 584.5,2277.8 535.9,2362.2 438.6,2362.2 389.9,2277.8 				"/>
				<polygon class="st2" points="535.9,2024.4 633.2,2024.4 681.8,2108.9 633.2,2193.3 535.9,2193.3 487.2,2108.9 				"/>
				<polygon class="st2" points="535.9,1855.5 633.2,1855.5 681.8,1940 633.2,2024.4 535.9,2024.4 487.2,1940 				"/>
				<polygon class="st2" points="535.9,2193.3 633.2,2193.3 681.8,2277.8 633.2,2362.2 535.9,2362.2 487.2,2277.8 				"/>
				<polygon class="st2" points="924.5,2362.2 1021.8,2362.2 1070.4,2446.7 1021.8,2531.1 924.5,2531.1 875.9,2446.7 				"/>
				<polygon class="st2" points="632.7,2531.1 729.9,2531.1 778.6,2615.6 729.9,2700 632.7,2700 584,2615.6 				"/>
				<polygon class="st2" points="729.9,2531.1 827.2,2531.1 875.9,2615.6 827.2,2700 729.9,2700 681.3,2615.6 				"/>
				<polygon class="st2" points="632.7,2362.2 729.9,2362.2 778.6,2446.7 729.9,2531.1 632.7,2531.1 584,2446.7 				"/>
				<polygon class="st2" points="729.9,2362.2 827.2,2362.2 875.9,2446.7 827.2,2531.1 729.9,2531.1 681.3,2446.7 				"/>
				<polygon class="st2" points="827.2,2362.2 924.5,2362.2 973.2,2446.7 924.5,2531.1 827.2,2531.1 778.6,2446.7 				"/>
				<polygon class="st2" points="827.2,2531.1 924.5,2531.1 973.2,2615.6 924.5,2700 827.2,2700 778.6,2615.6 				"/>
				<polygon class="st2" points="924.5,2531.1 1021.8,2531.1 1070.4,2615.6 1021.8,2700 924.5,2700 875.9,2615.6 				"/>
				<polygon class="st2" points="1021.8,2362.2 1119.1,2362.2 1167.7,2446.7 1119.1,2531.1 1021.8,2531.1 973.2,2446.7 				"/>
				<polygon class="st2" points="1021.8,2531.1 1119.1,2531.1 1167.7,2615.6 1119.1,2700 1021.8,2700 973.1,2615.6 				"/>
				<polygon class="st2" points="632.7,2193.3 729.9,2193.3 778.6,2277.8 729.9,2362.2 632.7,2362.2 584,2277.8 				"/>
				<polygon class="st2" points="632.7,1855.5 729.9,1855.5 778.6,1940 729.9,2024.4 632.7,2024.4 584,1940 				"/>
				<polygon class="st2" points="729.9,1855.5 827.2,1855.5 875.9,1940 827.2,2024.4 729.9,2024.4 681.3,1940 				"/>
				<polygon class="st2" points="827.2,2193.3 924.5,2193.3 973.2,2277.8 924.5,2362.2 827.2,2362.2 778.6,2277.8 				"/>
				<polygon class="st2" points="729.9,2193.3 827.2,2193.3 875.9,2277.8 827.2,2362.2 729.9,2362.2 681.3,2277.8 				"/>
				<polygon class="st2" points="632.7,2024.4 729.9,2024.4 778.6,2108.9 729.9,2193.3 632.7,2193.3 584,2108.9 				"/>
				<polygon class="st2" points="729.9,2024.4 827.2,2024.4 875.9,2108.9 827.2,2193.3 729.9,2193.3 681.3,2108.9 				"/>
				<polygon class="st2" points="827.2,2024.4 924.5,2024.4 973.2,2108.9 924.5,2193.3 827.2,2193.3 778.6,2108.9 				"/>
				<polygon class="st2" points="827.2,1855.5 924.5,1855.5 973.2,1940 924.5,2024.4 827.2,2024.4 778.6,1940 				"/>
				<polygon class="st2" points="924.5,1855.5 1021.8,1855.5 1070.4,1940 1021.8,2024.4 924.5,2024.4 875.9,1940 				"/>
				<polygon class="st2" points="924.5,2024.4 1021.8,2024.4 1070.4,2108.9 1021.8,2193.3 924.5,2193.3 875.9,2108.9 				"/>
				<polygon class="st2" points="924.5,2193.3 1021.8,2193.3 1070.4,2277.8 1021.8,2362.2 924.5,2362.2 875.9,2277.8 				"/>
				<polygon class="st2" points="1021.8,2024.4 1119.1,2024.4 1167.7,2108.9 1119.1,2193.3 1021.8,2193.3 973.2,2108.9 				"/>
				<polygon class="st2" points="1021.8,1855.5 1119.1,1855.5 1167.7,1940 1119.1,2024.4 1021.8,2024.4 973.2,1940 				"/>
				<polygon class="st2" points="1021.8,2193.3 1119.1,2193.3 1167.7,2277.8 1119.1,2362.2 1021.8,2362.2 973.2,2277.8 				"/>
			</g>
		</g>
	</g>
	<g>
		<g>
			<defs>
				<rect id="SVGID_00000139974072294706629170000001513455080664283798_" y="1350" width="1200" height="675"/>
			</defs>
			<clipPath id="SVGID_00000157990144639281624980000012680586423213045168_">
				<use xlink:href="#SVGID_00000139974072294706629170000001513455080664283798_"  style="overflow:visible;"/>
			</clipPath>
			<g style="clip-path:url(#SVGID_00000157990144639281624980000012680586423213045168_);">
				<polygon class="st2" points="438.6,1687.8 535.9,1687.8 584.5,1603.3 535.9,1518.9 438.6,1518.9 389.9,1603.3 				"/>
				<polygon class="st2" points="146.7,1518.9 244,1518.9 292.7,1434.4 244,1350 146.7,1350 98.1,1434.4 				"/>
				<polygon class="st2" points="244,1518.9 341.3,1518.9 389.9,1434.4 341.3,1350 244,1350 195.4,1434.4 				"/>
				<polygon class="st2" points="-47.8,1518.9 49.4,1518.9 98.1,1434.4 49.4,1350 -47.8,1350 -96.5,1434.4 				"/>
				<polygon class="st2" points="49.4,1687.8 146.7,1687.8 195.4,1603.3 146.7,1518.9 49.4,1518.9 0.8,1603.3 				"/>
				<polygon class="st2" points="146.7,1687.8 244,1687.8 292.7,1603.3 244,1518.9 146.7,1518.9 98.1,1603.3 				"/>
				<polygon class="st2" points="244,1687.8 341.3,1687.8 389.9,1603.3 341.3,1518.9 244,1518.9 195.4,1603.3 				"/>
				<polygon class="st2" points="-47.8,1687.8 49.4,1687.8 98.1,1603.3 49.4,1518.9 -47.8,1518.9 -96.5,1603.3 				"/>
				<polygon class="st2" points="341.3,1687.8 438.6,1687.8 487.2,1603.3 438.6,1518.9 341.3,1518.9 292.7,1603.3 				"/>
				<polygon class="st2" points="49.4,1518.9 146.7,1518.9 195.4,1434.4 146.7,1350 49.4,1350 0.8,1434.4 				"/>
				<polygon class="st2" points="341.3,1518.9 438.6,1518.9 487.2,1434.4 438.6,1350 341.3,1350 292.7,1434.4 				"/>
				<polygon class="st2" points="438.6,1518.9 535.9,1518.9 584.5,1434.4 535.9,1350 438.6,1350 389.9,1434.4 				"/>
				<polygon class="st2" points="535.9,1687.8 633.2,1687.8 681.8,1603.3 633.2,1518.9 535.9,1518.9 487.2,1603.3 				"/>
				<polygon class="st2" points="535.9,1518.9 633.1,1518.9 681.8,1434.4 633.1,1350 535.9,1350 487.2,1434.4 				"/>
				<polygon class="st2" points="-47.8,2025.6 49.4,2025.6 98.1,1941.1 49.4,1856.7 -47.8,1856.7 -96.5,1941.1 				"/>
				<polygon class="st2" points="-47.8,1856.7 49.4,1856.7 98.1,1772.2 49.4,1687.8 -47.8,1687.8 -96.5,1772.2 				"/>
				<polygon class="st2" points="49.4,1856.7 146.7,1856.7 195.4,1772.2 146.7,1687.8 49.4,1687.8 0.8,1772.2 				"/>
				<polygon class="st2" points="146.7,1856.7 244,1856.7 292.7,1772.2 244,1687.8 146.7,1687.8 98.1,1772.2 				"/>
				<polygon class="st2" points="146.7,2194.5 244,2194.5 292.7,2110 244,2025.6 146.7,2025.6 98.1,2110 				"/>
				<polygon class="st2" points="244,2194.5 341.3,2194.5 389.9,2110 341.3,2025.6 244,2025.6 195.4,2110 				"/>
				<polygon class="st2" points="49.4,2025.6 146.7,2025.6 195.4,1941.1 146.7,1856.7 49.4,1856.7 0.8,1941.1 				"/>
				<polygon class="st2" points="341.3,1856.7 438.6,1856.7 487.2,1772.2 438.6,1687.8 341.3,1687.8 292.7,1772.2 				"/>
				<polygon class="st2" points="-47.8,2194.5 49.4,2194.5 98.1,2110 49.4,2025.6 -47.8,2025.6 -96.5,2110 				"/>
				<polygon class="st2" points="244,1856.7 341.3,1856.7 389.9,1772.2 341.3,1687.8 244,1687.8 195.4,1772.2 				"/>
				<polygon class="st2" points="146.7,2025.6 244,2025.6 292.7,1941.1 244,1856.7 146.7,1856.7 98.1,1941.1 				"/>
				<polygon class="st2" points="244,2025.6 341.3,2025.6 389.9,1941.1 341.3,1856.7 244,1856.7 195.4,1941.1 				"/>
				<polygon class="st2" points="341.3,2025.6 438.6,2025.6 487.2,1941.1 438.6,1856.7 341.3,1856.7 292.7,1941.1 				"/>
				<polygon class="st2" points="49.4,2194.5 146.7,2194.5 195.4,2110 146.7,2025.6 49.4,2025.6 0.8,2110 				"/>
				<polygon class="st2" points="341.3,2194.5 438.6,2194.5 487.2,2110 438.6,2025.6 341.3,2025.6 292.7,2110 				"/>
				<polygon class="st2" points="1216.4,1518.9 1313.7,1518.9 1362.3,1434.4 1313.7,1350 1216.4,1350 1167.7,1434.4 				"/>
				<polygon class="st2" points="1119.1,1687.8 1216.4,1687.8 1265,1603.3 1216.4,1518.9 1119.1,1518.9 1070.4,1603.3 				"/>
				<polygon class="st2" points="1216.4,1687.8 1313.7,1687.8 1362.3,1603.3 1313.7,1518.9 1216.4,1518.9 1167.7,1603.3 				"/>
				<polygon class="st2" points="1119.1,1518.9 1216.4,1518.9 1265,1434.4 1216.4,1350 1119.1,1350 1070.4,1434.4 				"/>
				<polygon class="st2" points="1119.1,1856.7 1216.4,1856.7 1265,1772.2 1216.4,1687.8 1119.1,1687.8 1070.4,1772.2 				"/>
				<polygon class="st2" points="1216.4,1856.7 1313.7,1856.7 1362.3,1772.2 1313.7,1687.8 1216.4,1687.8 1167.7,1772.2 				"/>
				<polygon class="st2" points="1216.4,2194.5 1313.7,2194.5 1362.3,2110 1313.7,2025.6 1216.4,2025.6 1167.7,2110 				"/>
				<polygon class="st2" points="1119.1,2025.6 1216.4,2025.6 1265,1941.1 1216.4,1856.7 1119.1,1856.7 1070.4,1941.1 				"/>
				<polygon class="st2" points="1216.4,2025.6 1313.7,2025.6 1362.3,1941.1 1313.7,1856.7 1216.4,1856.7 1167.7,1941.1 				"/>
				<polygon class="st2" points="1119.1,2194.5 1216.4,2194.5 1265,2110 1216.4,2025.6 1119.1,2025.6 1070.4,2110 				"/>
				<polygon class="st2" points="438.6,2194.5 535.9,2194.5 584.5,2110 535.9,2025.6 438.6,2025.6 389.9,2110 				"/>
				<polygon class="st2" points="438.6,2025.6 535.9,2025.6 584.5,1941.1 535.9,1856.7 438.6,1856.7 389.9,1941.1 				"/>
				<polygon class="st2" points="438.6,1856.7 535.9,1856.7 584.5,1772.2 535.9,1687.8 438.6,1687.8 389.9,1772.2 				"/>
				<polygon class="st2" points="535.9,2025.6 633.2,2025.6 681.8,1941.1 633.2,1856.7 535.9,1856.7 487.2,1941.1 				"/>
				<polygon class="st2" points="535.9,2194.5 633.2,2194.5 681.8,2110 633.2,2025.6 535.9,2025.6 487.2,2110 				"/>
				<polygon class="st2" points="535.9,1856.7 633.2,1856.7 681.8,1772.2 633.2,1687.8 535.9,1687.8 487.2,1772.2 				"/>
				<polygon class="st2" points="924.5,1687.8 1021.8,1687.8 1070.4,1603.3 1021.8,1518.9 924.5,1518.9 875.9,1603.3 				"/>
				<polygon class="st2" points="632.7,1518.9 729.9,1518.9 778.6,1434.4 729.9,1350 632.7,1350 584,1434.4 				"/>
				<polygon class="st2" points="729.9,1518.9 827.2,1518.9 875.9,1434.4 827.2,1350 729.9,1350 681.3,1434.4 				"/>
				<polygon class="st2" points="632.7,1687.8 729.9,1687.8 778.6,1603.3 729.9,1518.9 632.7,1518.9 584,1603.3 				"/>
				<polygon class="st2" points="729.9,1687.8 827.2,1687.8 875.9,1603.3 827.2,1518.9 729.9,1518.9 681.3,1603.3 				"/>
				<polygon class="st2" points="827.2,1687.8 924.5,1687.8 973.2,1603.3 924.5,1518.9 827.2,1518.9 778.6,1603.3 				"/>
				<polygon class="st2" points="827.2,1518.9 924.5,1518.9 973.2,1434.4 924.5,1350 827.2,1350 778.6,1434.4 				"/>
				<polygon class="st2" points="924.5,1518.9 1021.8,1518.9 1070.4,1434.4 1021.8,1350 924.5,1350 875.9,1434.4 				"/>
				<polygon class="st2" points="1021.8,1687.8 1119.1,1687.8 1167.7,1603.3 1119.1,1518.9 1021.8,1518.9 973.2,1603.3 				"/>
				<polygon class="st2" points="1021.8,1518.9 1119.1,1518.9 1167.7,1434.4 1119.1,1350 1021.8,1350 973.1,1434.4 				"/>
				<polygon class="st2" points="632.7,1856.7 729.9,1856.7 778.6,1772.2 729.9,1687.8 632.7,1687.8 584,1772.2 				"/>
				<polygon class="st2" points="632.7,2194.5 729.9,2194.5 778.6,2110 729.9,2025.6 632.7,2025.6 584,2110 				"/>
				<polygon class="st2" points="729.9,2194.5 827.2,2194.5 875.9,2110 827.2,2025.6 729.9,2025.6 681.3,2110 				"/>
				<polygon class="st2" points="827.2,1856.7 924.5,1856.7 973.2,1772.2 924.5,1687.8 827.2,1687.8 778.6,1772.2 				"/>
				<polygon class="st2" points="729.9,1856.7 827.2,1856.7 875.9,1772.2 827.2,1687.8 729.9,1687.8 681.3,1772.2 				"/>
				<polygon class="st2" points="632.7,2025.6 729.9,2025.6 778.6,1941.1 729.9,1856.7 632.7,1856.7 584,1941.1 				"/>
				<polygon class="st2" points="729.9,2025.6 827.2,2025.6 875.9,1941.1 827.2,1856.7 729.9,1856.7 681.3,1941.1 				"/>
				<polygon class="st2" points="827.2,2025.6 924.5,2025.6 973.2,1941.1 924.5,1856.7 827.2,1856.7 778.6,1941.1 				"/>
				<polygon class="st2" points="827.2,2194.5 924.5,2194.5 973.2,2110 924.5,2025.6 827.2,2025.6 778.6,2110 				"/>
				<polygon class="st2" points="924.5,2194.5 1021.8,2194.5 1070.4,2110 1021.8,2025.6 924.5,2025.6 875.9,2110 				"/>
				<polygon class="st2" points="924.5,2025.6 1021.8,2025.6 1070.4,1941.1 1021.8,1856.7 924.5,1856.7 875.9,1941.1 				"/>
				<polygon class="st2" points="924.5,1856.7 1021.8,1856.7 1070.4,1772.2 1021.8,1687.8 924.5,1687.8 875.9,1772.2 				"/>
				<polygon class="st2" points="1021.8,2025.6 1119.1,2025.6 1167.7,1941.1 1119.1,1856.7 1021.8,1856.7 973.2,1941.1 				"/>
				<polygon class="st2" points="1021.8,2194.5 1119.1,2194.5 1167.7,2110 1119.1,2025.6 1021.8,2025.6 973.2,2110 				"/>
				<polygon class="st2" points="1021.8,1856.7 1119.1,1856.7 1167.7,1772.2 1119.1,1687.8 1021.8,1687.8 973.2,1772.2 				"/>
			</g>
		</g>
	</g>
	
		<linearGradient id="SVGID_00000147926228409513110350000008126522986183537588_" gradientUnits="userSpaceOnUse" x1="-154.218" y1="-760.3974" x2="1337.8339" y2="-1596.6403" gradientTransform="matrix(1 0 0 1 0 3208.1101)">
		<stop  offset="0" style="stop-color:#0D0D0D;stop-opacity:0"/>
		<stop  offset="8.532909e-02" style="stop-color:#0F0F0F;stop-opacity:0.1718"/>
		<stop  offset="0.4966" style="stop-color:#121212"/>
		<stop  offset="0.9575" style="stop-color:#121212;stop-opacity:8.435023e-02"/>
		<stop  offset="1" style="stop-color:#121212;stop-opacity:0"/>
	</linearGradient>
	<rect y="1350" style="fill:url(#SVGID_00000147926228409513110350000008126522986183537588_);" width="1200" height="1350"/>
</g>
</svg>
